<?xml version="1.0" encoding="UTF-8" standalone="no"?>
<!-- Created with Inkscape (http://www.inkscape.org/) -->

<svg
   xmlns:dc="http://purl.org/dc/elements/1.1/"
   xmlns:cc="http://creativecommons.org/ns#"
   xmlns:rdf="http://www.w3.org/1999/02/22-rdf-syntax-ns#"
   xmlns:svg="http://www.w3.org/2000/svg"
   xmlns="http://www.w3.org/2000/svg"
   xmlns:sodipodi="http://sodipodi.sourceforge.net/DTD/sodipodi-0.dtd"
   xmlns:inkscape="http://www.inkscape.org/namespaces/inkscape"
   width="100mm"
   height="100mm"
   viewBox="0 0 100 100"
   version="1.1"
   id="svg8"
   inkscape:version="0.92.4 (5da689c313, 2019-01-14)"
   sodipodi:docname="preview_icon.svg">
  <defs
     id="defs2" />
  <sodipodi:namedview
     id="base"
     pagecolor="#ffffff"
     bordercolor="#666666"
     borderopacity="1.0"
     inkscape:pageopacity="0.0"
     inkscape:pageshadow="2"
     inkscape:zoom="1.4"
     inkscape:cx="188.97176"
     inkscape:cy="214.77829"
     inkscape:document-units="mm"
     inkscape:current-layer="layer1"
     showgrid="false"
     inkscape:window-width="2400"
     inkscape:window-height="1271"
     inkscape:window-x="2391"
     inkscape:window-y="-9"
     inkscape:window-maximized="1" />
  <metadata
     id="metadata5">
    <rdf:RDF>
      <cc:Work
         rdf:about="">
        <dc:format>image/svg+xml</dc:format>
        <dc:type
           rdf:resource="http://purl.org/dc/dcmitype/StillImage" />
        <dc:title></dc:title>
      </cc:Work>
    </rdf:RDF>
  </metadata>
  <g
     inkscape:label="Layer 1"
     inkscape:groupmode="layer"
     id="layer1"
     transform="translate(0,-197)">
    <path
       style="fill:#a4a4a4;stroke-width:2.82034826"
       inkscape:connector-curvature="0"
       d="m 88.507644,213.81523 h -76.71347 c -1.8050297,0 -3.5254437,0.69714 -4.7945947,1.93482 -1.269163,1.24088 -1.974241,2.9219 -1.974241,4.67615 v 44.06789 c 0,1.75148 0.705025,3.43239 1.974241,4.67338 1.269151,1.24088 2.989565,1.93471 4.7945947,1.93471 h 33.844181 v 4.40817 H 20.819282 c -0.592246,0 -1.184546,0.23131 -1.607593,0.64597 -0.423079,0.41146 -0.648636,0.97322 -0.648636,1.55683 v 4.40827 c 0,0.58415 0.225664,1.14505 0.648636,1.55683 0.423079,0.41466 1.015325,0.64597 1.607593,0.64597 h 58.663252 c 0.59225,0 1.18455,-0.23131 1.6076,-0.64597 0.42307,-0.41146 0.64863,-0.97322 0.64863,-1.55683 v -4.40827 c 0,-0.58414 -0.22566,-1.14505 -0.64863,-1.55683 -0.42308,-0.41466 -1.01533,-0.64597 -1.6076,-0.64597 H 54.663463 v -4.40817 h 33.844181 c 1.80502,0 3.52543,-0.69394 4.7946,-1.93471 1.26915,-1.24099 1.97424,-2.9219 1.97424,-4.67338 V 220.4262 c 0,-1.75425 -0.70514,-3.43527 -1.97424,-4.67615 -1.26917,-1.23811 -2.98958,-1.93482 -4.7946,-1.93482 z m -2.25627,48.47617 H 14.050446 v -39.66251 h 72.200928 z"
       id="path4922" />
  </g>
</svg>
