<?xml version="1.0" encoding="UTF-8" standalone="no"?>
<!-- Created with Inkscape (http://www.inkscape.org/) -->

<svg
   xmlns:dc="http://purl.org/dc/elements/1.1/"
   xmlns:cc="http://creativecommons.org/ns#"
   xmlns:rdf="http://www.w3.org/1999/02/22-rdf-syntax-ns#"
   xmlns:svg="http://www.w3.org/2000/svg"
   xmlns="http://www.w3.org/2000/svg"
   xmlns:sodipodi="http://sodipodi.sourceforge.net/DTD/sodipodi-0.dtd"
   xmlns:inkscape="http://www.inkscape.org/namespaces/inkscape"
   width="100mm"
   height="100mm"
   viewBox="0 0 100 100"
   version="1.1"
   id="svg8"
   inkscape:version="0.92.4 (5da689c313, 2019-01-14)"
   sodipodi:docname="resources_icon.svg">
  <defs
     id="defs2" />
  <sodipodi:namedview
     id="base"
     pagecolor="#ffffff"
     bordercolor="#666666"
     borderopacity="1.0"
     inkscape:pageopacity="0.0"
     inkscape:pageshadow="2"
     inkscape:zoom="1.4"
     inkscape:cx="-27.099669"
     inkscape:cy="214.77829"
     inkscape:document-units="mm"
     inkscape:current-layer="layer1"
     showgrid="false"
     inkscape:window-width="2400"
     inkscape:window-height="1271"
     inkscape:window-x="2391"
     inkscape:window-y="-9"
     inkscape:window-maximized="1" />
  <metadata
     id="metadata5">
    <rdf:RDF>
      <cc:Work
         rdf:about="">
        <dc:format>image/svg+xml</dc:format>
        <dc:type
           rdf:resource="http://purl.org/dc/dcmitype/StillImage" />
        <dc:title />
      </cc:Work>
    </rdf:RDF>
  </metadata>
  <g
     inkscape:label="Layer 1"
     inkscape:groupmode="layer"
     id="layer1"
     transform="translate(0,-197)">
    <path
       style="fill:#a4a4a4;stroke-width:2.50881696"
       inkscape:connector-curvature="0"
       d="M 86.586788,215.24844 H 30.389281 c -1.053704,0 -2.082317,0.42861 -2.834962,1.19419 -0.752598,0.76521 -1.179143,1.80132 -1.179143,2.88266 v 12.23045 h 20.070541 v -8.1536 h 24.084644 v 40.76829 h 16.056427 c 1.053703,0 2.082316,-0.42954 2.834963,-1.19428 0.752595,-0.7652 1.179137,-1.80132 1.179137,-2.88257 v -40.76829 c 0,-1.08134 -0.426507,-2.11745 -1.179137,-2.88266 -0.752599,-0.76521 -1.78126,-1.19419 -2.834963,-1.19419 z m -47.165766,13.12112 c 0,0.30627 -0.125448,0.59737 -0.326186,0.81262 -0.225769,0.21335 -0.501794,0.33566 -0.802852,0.33566 h -3.76315 c -0.301058,0 -0.576989,-0.12326 -0.802854,-0.33566 -0.200736,-0.2162 -0.326185,-0.50635 -0.326185,-0.81262 v -3.82093 c 0,-0.30343 0.125449,-0.59453 0.326185,-0.81072 0.225771,-0.21619 0.501796,-0.33567 0.802854,-0.33567 h 3.763225 c 0.301058,0 0.576989,0.12043 0.802854,0.33567 0.200736,0.21619 0.326185,0.50634 0.326185,0.81072 z m 44.155185,26.50069 c 0,0.30343 -0.125449,0.59453 -0.326186,0.81073 -0.22577,0.21524 -0.501795,0.33566 -0.802853,0.33566 h -3.763225 c -0.301058,0 -0.576989,-0.12042 -0.802854,-0.33566 -0.200736,-0.2162 -0.326185,-0.50635 -0.326185,-0.81073 v -3.82102 c 0,-0.30627 0.125449,-0.59738 0.326185,-0.81262 0.22577,-0.21335 0.501796,-0.33567 0.802854,-0.33567 h 3.763225 c 0.301058,0 0.576988,0.12327 0.802853,0.33567 0.200737,0.21619 0.326186,0.50635 0.326186,0.81262 z m 0,-13.24912 c 0,0.30343 -0.125449,0.59454 -0.326186,0.81073 -0.22577,0.21619 -0.501795,0.33661 -0.802853,0.33661 h -3.763225 c -0.301058,0 -0.576989,-0.12042 -0.802854,-0.33661 -0.200736,-0.21619 -0.326185,-0.50634 -0.326185,-0.81073 v -3.82339 c 0,-0.30342 0.125449,-0.59453 0.326185,-0.81072 0.22577,-0.21619 0.501796,-0.33662 0.802854,-0.33662 h 3.763225 c 0.301058,0 0.576988,0.12043 0.802853,0.33662 0.200737,0.21619 0.326186,0.50635 0.326186,0.81072 z m 0,-13.25157 c 0,0.30627 -0.125449,0.59737 -0.326186,0.81262 -0.22577,0.21335 -0.501795,0.33566 -0.802853,0.33566 h -3.763225 c -0.301058,0 -0.576989,-0.12326 -0.802854,-0.33566 -0.200736,-0.2162 -0.326185,-0.50635 -0.326185,-0.81262 v -3.82093 c 0,-0.30343 0.125449,-0.59453 0.326185,-0.81072 0.22577,-0.21619 0.501796,-0.33567 0.802854,-0.33567 h 3.763225 c 0.301058,0 0.576988,0.12043 0.802853,0.33567 0.200737,0.21619 0.326186,0.50634 0.326186,0.81072 z m -21.074064,7.26303 H 14.332854 c -1.053703,0 -2.082316,0.42859 -2.834961,1.19418 -0.752693,0.76521 -1.179143,1.80133 -1.179143,2.88267 v 36.69144 c 0,1.08125 0.426507,2.11746 1.179143,2.88266 0.752597,0.76521 1.781258,1.19419 2.834961,1.19419 h 48.169289 c 1.053703,0 2.082316,-0.42955 2.834962,-1.19419 0.752597,-0.7652 1.179142,-1.80141 1.179142,-2.88266 v -36.69144 c 0,-1.08134 -0.426507,-2.11746 -1.179142,-2.88267 -0.752598,-0.7652 -1.781259,-1.19418 -2.834962,-1.19418 z m -40.141071,8.1537 c 0.802853,0 1.58055,0.238 2.232846,0.68745 0.652276,0.44662 1.179142,1.08382 1.4802,1.82892 0.301058,0.74529 0.376347,1.5655 0.22577,2.35584 -0.150482,0.78986 -0.526828,1.5178 -1.103883,2.0873 -0.551955,0.56988 -1.279501,0.95836 -2.057227,1.11643 -0.777725,0.15551 -1.580559,0.0758 -2.308115,-0.23326 -0.727564,-0.30817 -1.354761,-0.83063 -1.806347,-1.50027 -0.45154,-0.66943 -0.677405,-1.46006 -0.677405,-2.26547 0,-1.08125 0.426507,-2.11737 1.179152,-2.88257 0.752598,-0.76521 1.781259,-1.19418 2.834962,-1.19418 z m 36.126966,28.53774 H 18.346959 v -4.07685 l 8.028217,-8.1536 4.014105,4.07685 16.056436,-16.30739 12.042321,12.23054 z"
       id="path4910" />
  </g>
</svg>
